<svg height="512" width="512" xmlns="http://www.w3.org/2000/svg"><path d="m495.85495 367.604248c-28.9803467-73.1774597-53.0365906-148.2316895-80.7252808-221.8935089-12.2297668-31.3618469-24.1973877-62.9860611-40.8671875-92.3295364-6.6195374-10.5348358-12.9564819-22.1188946-23.8140564-28.8593864-2.7394409-1.7407379-5.8284912-2.4797993-8.8795776-2.4216614-5.0852356.096571-10.1411743 2.3711586-14.0261536 5.6506233-14.5708618 11.5436554-23.2085266 28.3346519-32.8954163 43.7936096-17.1139526 28.6977844-35.1559448 58.7478027-63.7731628 77.3953247-13.4405823 9.4851074-31.0388947 10.514389-43.9951324 20.6858521-17.7192688 13.3600159-29.7674561 32.3103027-44.2981567 48.7379303-3.3095093 3.9554596-8.4356537 5.5296631-12.9158478 7.6687622-43.3496781 17.6788482-86.7193146 35.3172912-129.6649781 53.8842773 36.3665314 28.1326294 75.1148148 53.1575317 112.2080917 80.3215027 10.171463-2.0181274 20.3830795-6.1955566 30.8772659-4.3390503 16.6296387 5.2069397 26.3771362 21.150238 34.005722 35.7210999 15.4991302 31.7653809 26.6998596 65.3067322 39.2525787 98.2829285 20.9886169-1.4934082 39.8782959-12.3105469 56.1041565-25.0248718 31.2406616-25.3072205 55.0342712-58.0010986 81.2298279-88.1922913 12.5527344-13.1986694 25.3475952-28.9197388 44.1968994-32.592865 19.0513-4.6014099 39.4545593 2.2198792 53.5814819 15.337738 19.8179628 17.7192688 37.3758547 38.2033386 60.543976 51.7651367-3.1080017-15.337738-10.5749817-29.1012878-16.14505-43.5916138zm-324.0112-51.5633544c-18.2841492 10.8174133-37.6985779 19.7171936-56.709465 29.1621399-29.8280487-19.9795532-58.8889542-41.1497192-88.192276-61.8557739 39.5149345-17.3154907 79.6354065-33.4001923 119.6750793-49.5452576 18.9704895 14.8132782 38.546524 28.8796082 57.5167694 43.692627-8.9199905 14.2481078-19.656578 27.4869384-32.2901077 38.5462646zm40.6654053-49.6459961c-18.8492889-14.1673279-37.9407349-27.9510803-56.5076904-42.4815369 11.9070282-16.2258606 24.9440765-31.9067841 40.5643921-44.7016754 10.33284-6.6195374 22.9663544-8.4561005 33.7029572-14.4296875 25.4688263-12.7143402 42.8448944-36.043808 59.4338837-58.3240738-21.2709352 55.2160721-43.9749147 110.654335-77.1935426 159.9369736z"/></svg>